<svg xmlns="http://www.w3.org/2000/svg" viewBox="0 0 900 700" role="img" aria-label="Map placeholder">
  <defs>
    <linearGradient id="bg" x1="0" y1="0" x2="1" y2="1">
      <stop offset="0%" stop-color="#f3e7d9" />
      <stop offset="100%" stop-color="#e8d8c2" />
    </linearGradient>
    <linearGradient id="grid" x1="0" y1="0" x2="1" y2="0">
      <stop offset="0%" stop-color="#c9b79f" stop-opacity="0.4" />
      <stop offset="100%" stop-color="#c9b79f" stop-opacity="0.1" />
    </linearGradient>
  </defs>
  <rect width="900" height="700" fill="url(#bg)" />
  <rect x="40" y="40" width="820" height="620" fill="none" stroke="#c9b79f" stroke-width="6" rx="28" />
  <g stroke="url(#grid)" stroke-width="2">
    <line x1="150" y1="80" x2="150" y2="620" />
    <line x1="300" y1="80" x2="300" y2="620" />
    <line x1="450" y1="80" x2="450" y2="620" />
    <line x1="600" y1="80" x2="600" y2="620" />
    <line x1="750" y1="80" x2="750" y2="620" />
    <line x1="80" y1="160" x2="820" y2="160" />
    <line x1="80" y1="300" x2="820" y2="300" />
    <line x1="80" y1="440" x2="820" y2="440" />
    <line x1="80" y1="580" x2="820" y2="580" />
  </g>
  <g fill="#a97952" opacity="0.5">
    <path d="M110 120h130v90H110z" />
    <path d="M270 190h160v120H270z" />
    <path d="M520 130h240v110H520z" />
    <path d="M170 380h200v140H170z" />
    <path d="M470 360h280v190H470z" />
  </g>
  <text x="60" y="70" font-family="'Space Grotesk', sans-serif" font-size="22" fill="#6b5f54">
    Placeholder map - swap with your GTA tile sheet
  </text>
</svg>
